<svg xmlns="http://www.w3.org/2000/svg" viewBox="0 0 150 50"><path fill="#424242" d="M20.2 11.2v25.4h12.9v1H17.3V11.2h2.9zM55 37.6h-2.9V16.8c0-1.1-.3-2-.9-2.8-.6-.7-1.3-1.3-2.2-1.7s-1.8-.5-2.9-.5c-1 0-2 .2-2.9.5-.9.4-1.6.9-2.2 1.7-.6.7-.9 1.7-.9 2.8v20.8h-2.9V16.8c0-1.3.4-2.4 1.3-3.3.9-.9 2-1.5 3.3-2 1.3-.4 2.7-.7 4.3-.7 1.5 0 3 .2 4.3.7 1.3.4 2.4 1.1 3.3 2 .9.9 1.3 2 1.3 3.3v20.8zm5.8-8.9c.4-.6.9-1.2 1.6-1.7.6-.5 1.4-.9 2.2-1.2.8-.3 1.7-.6 2.6-.9-.9-.3-1.8-.6-2.6-.9-.8-.3-1.6-.7-2.2-1.1-.6-.5-1.2-1-1.6-1.6-.4-.6-.6-1.4-.6-2.4v-7.7h2.9v7.7c0 .8.2 1.4.5 2 .3.5.7 1 1.3 1.4.5.4 1.2.8 1.9 1.1.7.3 1.5.6 2.3.9.8-.3 1.5-.6 2.3-.9.7-.3 1.4-.7 1.9-1.1s1-.9 1.3-1.4.5-1.2.5-2v-7.7H78v7.7c0 .9-.2 1.7-.6 2.4-.4.6-.9 1.2-1.5 1.6-.6.5-1.4.8-2.2 1.1-.8.3-1.7.6-2.6.9.9.3 1.7.6 2.6.9.8.3 1.6.7 2.2 1.2s1.1 1 1.5 1.7c.4.6.6 1.4.6 2.3v6.6h-3V31c0-.7-.2-1.4-.5-2s-.7-1.1-1.3-1.5c-.5-.4-1.2-.8-1.9-1.1-.7-.3-1.5-.6-2.3-.9-.8.3-1.6.6-2.3.9-.7.3-1.4.7-1.9 1.1s-1 .9-1.3 1.5-.5 1.2-.5 2v6.6h-2.9V31c.1-.9.3-1.7.7-2.3zm26.5 8.9H84v-3.2h3.2v3.2h.1zm17-17.5c0-.9-.2-1.7-.7-2.3-.5-.6-1.1-1.1-1.9-1.4s-1.6-.5-2.4-.5c-.9 0-1.7.2-2.4.5-.8.3-1.4.8-1.9 1.4s-.7 1.4-.7 2.3V33c0 .9.2 1.7.7 2.3s1.1 1.1 1.9 1.4c.8.3 1.6.5 2.4.5.9 0 1.7-.2 2.4-.5.8-.3 1.4-.8 1.9-1.4.5-.6.7-1.4.7-2.3h2.4c0 1.1-.4 2.1-1.1 2.8s-1.7 1.3-2.8 1.7-2.3.6-3.6.6c-1.3 0-2.5-.2-3.6-.6s-2-.9-2.8-1.7-1.1-1.7-1.1-2.8V20.1c0-1.1.4-2.1 1.1-2.8.7-.7 1.7-1.3 2.8-1.7 1.1-.4 2.3-.6 3.6-.6 1.3 0 2.5.2 3.6.6s2 .9 2.8 1.7c.7.7 1.1 1.7 1.1 2.8h-2.4zm9.3 17.5h-2.4V18.9c0-.9.4-1.6 1.1-2.3.7-.6 1.6-1.1 2.7-1.3s2.2-.3 3.3-.1 2.1.6 2.9 1.3c.8-.7 1.8-1.1 2.9-1.3s2.2-.1 3.3.1c1 .3 1.9.7 2.7 1.3.7.6 1.1 1.4 1.1 2.3h-.1v18.7h-2.4V18.9c0-1-.3-1.7-1-2.2s-1.4-.7-2.2-.7c-.8 0-1.5.2-2.2.7s-1 1.2-1 2.2h-.1v18.7h-2.4V18.9c0-1-.3-1.7-1-2.2s-1.4-.7-2.2-.7c-.8 0-1.5.2-2.2.7s-1 1.2-1 2.2v18.7h.2z"/></svg>